# AST/ASF file generated using VICON BodyLanguage
# -----------------------------------------------
:version 1.10
:name VICON
:units
  mass 1.0
  length 0.45
  angle deg
:documentation
   .ast/.asf automatically generated from VICON data using
   VICON BodyBuilder and BodyLanguage model FoxedUp or BRILLIANT.MOD
:root
   order TX TY TZ RX RY RZ
   axis XYZ
   position 0 0 0  
   orientation 0 0 0 
:bonedata
  begin
     id 1 
     name lhipjoint
     direction 0.603808 -0.713975 0.35448 
     length 2.2025 
     axis 0 0 0  XYZ
  end
  begin
     id 2 
     name lfemur
     direction 0.34202 -0.939693 0  
     length 6.55877  
     axis 0 0 20  XYZ
    dof rx ry rz
    limits (-160.0 20.0)
           (-70.0 70.0)
           (-60.0 70.0)
  end
  begin
     id 3 
     name ltibia
     direction 0.34202 -0.939693 0   
     length 6.80302   
     axis 0 0 20   XYZ
    dof rx
    limits (-10.0 170.0)
  end
  begin
     id 4 
     name lfoot
     direction 0.091848 -0.25235 0.963267   
     length 2.03446   
     axis -90 7.62852e-016 20   XYZ
    dof rx rz
    limits (-45.0 90.0)
           (-70.0 20.0)
  end
  begin
     id 5 
     name ltoes
     direction 1.53608e-011 -4.21925e-011 1   
     length 1.02033   
     axis -90 7.62852e-016 20   XYZ
    dof rx
    limits (-90.0 20.0)
  end
  begin
     id 6 
     name rhipjoint
     direction -0.587285 -0.724947 0.359928   
     length 2.16916  
     axis 0 0 0  XYZ 
  end
  begin
     id 7 
     name rfemur
     direction -0.34202 -0.939693 0   
     length 6.43173   
     axis 0 0 -20   XYZ
    dof rx ry rz
    limits (-160.0 20.0)
           (-70.0 70.0)
           (-70.0 60.0)
  end
  begin
     id 8 
     name rtibia
     direction -0.34202 -0.939693 0   
     length 6.70662   
     axis 0 0 -20   XYZ
    dof rx
    limits (-10.0 170.0)
 end
 begin
     id 9 
     name rfoot
     direction -0.11854 -0.325686 0.938018   
     length 2.0773  
     axis -90 -7.62852e-016 -20   XYZ
    dof rx rz
    limits (-45.0 90.0)
           (-20.0 70.0)
  end
  begin
     id 10 
     name rtoes
     direction -1.53547e-011 -4.21838e-011 1   
     length 1.03267   
     axis -90 -7.62852e-016 -20   XYZ
    dof rx
    limits (-90.0 20.0)
  end
  begin
     id 11 
     name lowerback
     direction -0.0286554 0.999539 0.0100613   
     length 2.08751   
     axis 0 0 0   XYZ
    dof rx ry rz
    limits (-20.0 45.0)
           (-30.0 30.0)
           (-30.0 30.0)
  end
  begin
     id 12 
     name upperback
     direction 0.0227093 0.999705 -0.00860929   
     length 2.08517   
     axis 0 0 0   XYZ
    dof rx ry rz
    limits (-20.0 45.0)
           (-30.0 30.0)
           (-30.0 30.0)
  end
  begin
     id 13 
     name thorax
     direction 0.0351627 0.999285 -0.013892   
     length 2.08412   
     axis 0 0 0   XYZ
    dof rx ry rz
    limits (-20.0 45.0)
           (-30.0 30.0)
           (-30.0 30.0)
  end
  begin
     id 14 
     name lowerneck
     direction -0.0696283 0.997344 0.0213922   
     length 1.44164   
     axis 0 0 0   XYZ
    dof rx ry rz
    limits (-20.0 45.0)
           (-30.0 30.0)
           (-30.0 30.0)
  end
  begin
     id 15 
     name upperneck
     direction 0.0531 0.990412 -0.127531   
     length 1.45022   
     axis 0 0 0   XYZ
    dof rx ry rz
    limits (-20.0 45.0)
           (-30.0 30.0)
           (-30.0 30.0)
  end
  begin
     id 16
     name head
     direction 0.0188154 0.998548 -0.0504727  
     length 1.45845  
     axis 0 0 0   XYZ
    dof rx ry rz
    limits (-20.0 45.0)
           (-30.0 30.0)
           (-30.0 30.0)
  end
  begin
     id 17 
     name lclavicle
     direction 0.961559 0.260051 0.088188  
     length 2.86057  
     axis 0 0 0   XYZ
    dof ry rz
    limits (-20.0 10.0)
           (0.0 20.0)
  end
  begin
     id 18 
     name lhumerus
     direction 1 -4.48959e-011 2.88185e-027   
     length 4.36901   
     axis 180 -30 -90   XYZ
    dof rx ry rz
    limits (-60.0 90.0)
           (-90.0 90.0)
           (-90.0 90.0)
  end
  begin
     id 19
     name lradius
     direction 1 -4.48965e-011 -3.92618e-028   
     length 3.21737   
     axis 180 -30 -90   XYZ
    dof rx
    limits (-10.0 170.0)
  end
  begin
     id 20
     name lwrist
     direction 1 -4.49037e-011 2.57246e-027   
     length 1.60869   
     axis -1.61769e-015 90 90   XYZ
    dof ry
    limits (-180.0 0.0)
 end
  begin
     id 21 
     name lhand
     direction 1 -4.48807e-011 5.12958e-027   
     length 0.564313   
     axis -3.27988e-015 90 90   XYZ
    dof rx rz
    limits (-90.0 90.0)
           (-45.0 45.0)
  end
  begin
     id 22 
     name lfingers
     direction 1 -4.48879e-011 1.02687e-026   
     length 0.454963   
     axis -6.5598e-015 90 90   XYZ
    dof rx
    limits (0.0 90.0)
  end
  begin
     id 23
     name lthumb
     direction 0.707107 -6.3475e-011 0.707107   
     length 0.653239   
     axis -90 45 2.19363e-014   XYZ
    dof rx rz
    limits (-45.0 45.0)
           (-45.0 45.0)
  end
  begin
     id 24 
     name rclavicle
     direction -0.954677 0.253915 0.155304   
     length 3.11497  
     axis 0 0 0   XYZ 
    dof ry rz
    limits (-10.0 20.0)
           (-20.0 0.0)
  end
  begin
     id 25 
     name rhumerus
     direction -1 -4.48958e-011 -8.20169e-028  
     length 4.34118   
     axis 180 30 90   XYZ
    dof rx ry rz
    limits (-90.0 60.0)
           (-90.0 90.0)
           (-90.0 90.0)
  end
  begin
     id 26 
     name rradius
     direction -1 -4.48978e-011 1.5676e-027   
     length 3.09531   
     axis 180 30 90   XYZ
    dof rx
    limits (-10.0 170.0)
  end
  begin
     id 27 
     name rwrist
     direction -1 -4.49001e-011 2.57123e-027   
     length 1.54765   
     axis -1.61769e-015 -90 -90   XYZ
    dof ry
    limits (-180.0 0.0)
  end
  begin
     id 28
     name rhand
     direction -1 -4.48847e-011 5.13225e-027   
     length 0.597446   
     axis -3.27988e-015 -90 -90   XYZ
    dof rx rz
    limits (-90.0 90.0)
           (-45.0 45.0)
  end
  begin
     id 29
     name rfingers
     direction -1 -4.49094e-011 1.02974e-026   
     length 0.481677   
     axis -6.5598e-015 -90 -90   XYZ
    dof rx
    limits (0.0 90.0)
  end
  begin
     id 30
     name rthumb
     direction -0.707107 -6.34859e-011 0.707107   
     length 0.691594   
     axis -90 -45 -2.19363e-014   XYZ
    dof rx rz
    limits (-45.0 45.0)
           (-45.0 45.0)
  end
:hierarchy
  begin
    root lhipjoint rhipjoint lowerback
    lhipjoint lfemur
    lfemur ltibia
    ltibia lfoot
    lfoot ltoes
    rhipjoint rfemur
    rfemur rtibia
    rtibia rfoot
    rfoot rtoes
    lowerback upperback
    upperback thorax
    thorax lowerneck lclavicle rclavicle
    lowerneck upperneck
    upperneck head
    lclavicle lhumerus
    lhumerus lradius
    lradius lwrist
    lwrist lhand lthumb
    lhand lfingers
    rclavicle rhumerus
    rhumerus rradius
    rradius rwrist
    rwrist rhand rthumb
    rhand rfingers
  end

#!OML:ASF I:\Acrobat_Osman\acrobat\cartwheel_test 2\Patient 1\Session 1\acrobat.ASF
:FULLY-SPECIFIED
:DEGREES
417
root 4.9693 15.1251 -4.32448 -352.476 5.43062 1.31533
lowerback -2.25344 -0.57453 -2.37955
upperback 0.0999516 -0.745653 3.11551
thorax 1.4394 -0.402241 4.52404
lowerneck -12.0296 -3.88441 -4.5387
upperneck 22.1775 -4.15236 -1.15047
head 9.01592 -2.43814 -0.10026
rclavicle 2.25621e-014 1.27222e-014
rhumerus -29.4824 11.8954 -90.4359
rradius 33.1818
rwrist -1.53067
rhand -16.6187 -700.749
rfingers 7.12502
rthumb 9.60328 -10.51
lclavicle 2.25621e-014 1.27222e-014
lhumerus -210.784 217.137 287.468
lradius 46.3411
lwrist -332.452
lhand -11.3018 50.8585
lfingers 7.12502
lthumb 14.7298 80.3152
rfemur -19.7126 6.1054 24.5432
rtibia 43.2818
rfoot -33.1666 -9.63796
rtoes -3.76512
lfemur -26.0456 3.55555 -23.7921
ltibia 57.0281
lfoot -26.306 5.66141
ltoes -17.9206
418
root 4.97206 15.1012 -4.29793 -352.712 5.51838 0.921744
lowerback -2.20756 -0.620713 -1.89034
upperback 0.202922 -0.824152 3.25404
thorax 1.52213 -0.441233 4.38742
lowerneck -11.883 -3.83954 -4.5576
upperneck 22.0149 -4.15915 -0.879338
head 8.93838 -2.41291 -0.000782857
rclavicle 1.19271e-014 -4.85035e-014
rhumerus -29.5616 11.7201 -89.609
rradius 33.149
rwrist -2.50597
rhand -17.4552 -700.496
rfingers 7.12502
rthumb 8.79612 -10.2924
lclavicle 1.19271e-014 -4.85035e-014
lhumerus -210.303 216.173 286.677
lradius 43.217
lwrist -333.782
lhand -12.8632 50.4015
lfingers 7.12502
lthumb 13.2251 79.962
rfemur -19.4049 5.86093 25.0357
rtibia 43.3591
rfoot -33.4059 -9.17051
rtoes -2.88524
lfemur -27.7236 4.64255 -23.3028
ltibia 60.6328
lfoot -25.2365 4.94613
ltoes -19.3914
419
root 4.97495 15.081 -4.2681 -353.034 5.62249 0.572221
lowerback -2.01854 -0.651758 -1.48212
upperback 0.285576 -0.879487 3.37666
thorax 1.50167 -0.466818 4.28259
lowerneck -11.609 -3.81692 -4.61107
upperneck 21.8588 -4.20098 -0.584912
head 8.84195 -2.40512 0.110434
rclavicle -3.97569e-015 -1.27222e-014
rhumerus -29.7084 11.2573 -88.6494
rradius 33.1322
rwrist -2.94359
rhand -17.6238 -700.555
rfingers 7.12502
rthumb 8.63335 -10.3587
lclavicle -3.97569e-015 -1.27222e-014
lhumerus -210.366 215.295 286.221
lradius 40.3342
lwrist -333.236
lhand -16.8538 49.002
lfingers 7.12502
lthumb 9.37644 78.7734
rfemur -18.9159 5.5788 25.5133
rtibia 43.3057
rfoot -33.4504 -8.9971
rtoes -2.68269
lfemur -29.4585 5.5416 -22.8744
ltibia 64.5431
lfoot -24.2344 4.74771
ltoes -20.8188
420
root 4.97745 15.0648 -4.23651 -353.338 5.72714 0.217629
lowerback -1.81388 -0.656394 -1.16306
upperback 0.359156 -0.895779 3.51047
thorax 1.46102 -0.473167 4.24188
lowerneck -11.2745 -3.85087 -4.62208
upperneck 21.72 -4.32395 -0.328476
head 8.74057 -2.43667 0.193451
rclavicle 2.28602e-015 2.78299e-014
rhumerus -29.7298 10.7099 -87.5915
rradius 32.9133
rwrist -2.94247
rhand -17.6255 -700.748
rfingers 7.12502
rthumb 8.63171 -10.5517
lclavicle 2.28602e-015 2.78299e-014
lhumerus -209.573 212.464 284.678
lradius 37.1302
lwrist -337.347
lhand -13.6688 50.8464
lfingers 7.12502
lthumb 12.4484 80.4557
rfemur -18.3447 5.41995 26.0495
rtibia 43.1514
rfoot -33.3585 -9.22995
rtoes -1.8937
lfemur -31.389 6.34988 -22.4491
ltibia 68.6015
lfoot -23.439 4.42121
ltoes -22.2579
421
root 4.9794 15.0574 -4.19776 -353.587 5.72593 -0.125966
lowerback -1.71015 -0.6291 -0.966684
upperback 0.470497 -0.867517 3.64873
thorax 1.5142 -0.459985 4.2759
lowerneck -11.0678 -3.90396 -4.69129
upperneck 21.6971 -4.48022 0.0446345
head 8.70812 -2.47776 0.317651
rclavicle 1.37161e-014 5.56597e-015
rhumerus -29.5711 10.1981 -86.5202
rradius 32.3655
rwrist -2.73027
rhand -18.1331 -700.537
rfingers 7.12502
rthumb 8.1419 -10.3602
lclavicle 1.37161e-014 5.56597e-015
lhumerus -208.966 209.392 283.096
lradius 34.4345
lwrist -339.864
lhand -12.776 51.5237
lfingers 7.12502
lthumb 13.3091 81.0787
rfemur -17.7871 5.50343 26.5922
rtibia 42.9477
rfoot -33.3434 -9.81604
rtoes -1.47351
lfemur -33.3417 7.0847 -22.0117
ltibia 72.584
lfoot -22.8547 3.85217
ltoes -22.8957
422
root 4.98203 15.0618 -4.15085 -353.784 5.66091 -0.315036
lowerback -1.63109 -0.591463 -0.906781
upperback 0.564356 -0.820704 3.68161
thorax 1.56212 -0.437903 4.27805
lowerneck -10.8654 -3.94911 -4.82238
upperneck 21.729 -4.64587 0.563177
head 8.70131 -2.51425 0.499314
rclavicle -2.3556e-014 1.59028e-015
rhumerus -29.3626 9.37826 -85.4921
rradius 31.5275
rwrist -2.05778
rhand -19.0426 -699.954
rfingers 7.12502
rthumb 7.26399 -9.80979
lclavicle -2.3556e-014 1.59028e-015
lhumerus -208.737 206.346 281.475
lradius 32.2978
lwrist -340.913
lhand -13.988 51.2372
lfingers 7.12502
lthumb 12.1407 80.865
rfemur -17.2944 6.00158 26.9368
rtibia 42.7399
rfoot -33.4709 -10.4763
rtoes -0.962117
lfemur -35.2379 7.71006 -21.7566
ltibia 76.2373
lfoot -22.3834 3.55931
ltoes -23.2667
423
root 4.9886 15.063 -4.10231 -353.891 5.61417 -0.342291
lowerback -1.52527 -0.54739 -0.883903
upperback 0.569463 -0.75989 3.57692
thorax 1.50104 -0.405937 4.1587
lowerneck -10.5032 -3.99656 -4.87052
upperneck 21.7345 -4.82974 1.0379
head 8.65417 -2.55843 0.654146
rclavicle -1.0635e-014 8.74653e-015
rhumerus -29.1972 8.09485 -84.507
rradius 30.4239
rwrist -0.877449
rhand -19.7659 -699.321
rfingers 7.12502
rthumb 6.56582 -9.19963
lclavicle -1.0635e-014 8.74653e-015
lhumerus -208.802 203.587 279.878
lradius 30.321
lwrist -341.102
lhand -15.4182 51.3738
lfingers 7.12502
lthumb 10.7614 81.0781
rfemur -16.8972 6.35165 27.0561
rtibia 42.5584
rfoot -33.6488 -10.7485
rtoes -0.334267
lfemur -37.1949 8.17171 -21.7353
ltibia 79.3691
lfoot -21.8502 3.62593
ltoes -24.1846
424
root 4.9978 15.0574 -4.05141 -353.888 5.61844 -0.350081
lowerback -1.49677 -0.533764 -0.887031
upperback 0.569471 -0.740265 3.49648
thorax 1.48233 -0.395485 4.07755
lowerneck -10.2244 -4.03477 -4.93867
upperneck 21.7562 -4.96703 1.40192
head 8.62539 -2.59374 0.77836
rclavicle 1.83876e-014 3.10104e-014
rhumerus -28.9495 6.75691 -83.4791
rradius 29.2259
rwrist 0.518118
rhand -20.0239 -699.184
rfingers 7.12502
rthumb 6.31677 -9.06951
lclavicle 1.83876e-014 3.10104e-014
lhumerus -208.842 200.764 278.215
lradius 28.4668
lwrist -340.864
lhand -15.2468 53.3792
lfingers 7.12502
lthumb 10.9267 83.0749
rfemur -16.5792 6.28065 27.1297
rtibia 42.4021
rfoot -33.6746 -10.7664
rtoes -0.525015
lfemur -39.2024 8.35923 -21.7119
ltibia 81.8432
lfoot -21.4511 3.38426
ltoes -23.9099
425
root 5.00958 15.0574 -3.99385 -353.814 5.51653 -0.347961
lowerback -1.5633 -0.491871 -0.962375
upperback 0.624688 -0.684557 3.48124
thorax 1.57285 -0.370057 4.10553
lowerneck -10.0542 -4.07091 -5.23572
upperneck 21.7468 -5.0559 1.78778
head 8.61279 -2.62195 0.950913
rclavicle 1.47101e-014 1.59028e-015
rhumerus -28.5823 5.27996 -82.3166
rradius 28.0691
rwrist 2.1222
rhand -20.0728 -699.5
rfingers 7.12502
rthumb 6.26955 -9.38699
lclavicle 1.47101e-014 1.59028e-015
lhumerus -208.89 197.615 276.412
lradius 26.8744
lwrist -340.813
lhand -16.7229 52.2233
lfingers 7.12502
lthumb 9.50274 81.989
rfemur -16.3071 6.17073 27.1401
rtibia 42.2389
rfoot -33.5719 -10.7748
rtoes -0.940316
lfemur -41.0972 8.43423 -21.6724
ltibia 83.4549
lfoot -21.3304 2.86009
ltoes -22.7235
426
root 5.02402 15.0614 -3.92892 -353.729 5.25156 -0.299667
lowerback -1.65536 -0.373495 -1.05081
upperback 0.704718 -0.525963 3.39806
thorax 1.6943 -0.293648 4.07359
lowerneck -9.81567 -4.14539 -5.53085
upperneck 21.7196 -5.1984 2.15519
head 8.58389 -2.67787 1.11266
rclavicle -7.25564e-015 5.56597e-015
rhumerus -28.2714 3.39461 -81.1499
rradius 26.8975
rwrist 4.28981
rhand -20.1719 -699.608
rfingers 7.12502
rthumb 6.17383 -9.49821
lclavicle -7.25564e-015 5.56597e-015
lhumerus -209.059 194.588 274.483
lradius 25.5706
lwrist -340.911
lhand -17.6762 51.5204
lfingers 7.12502
lthumb 8.58281 81.3259
rfemur -16.0109 6.2626 27.0454
rtibia 42.0273
rfoot -33.548 -10.7931
rtoes -0.950425
lfemur -42.7233 8.51453 -21.6968
ltibia 84.0014
lfoot -21.2718 2.69662
ltoes -22.396
427
root 5.03865 15.0658 -3.86014 -353.669 5.08506 -0.251836
lowerback -1.63346 -0.258537 -1.12337
upperback 0.754149 -0.369397 3.24658
thorax 1.7197 -0.216107 3.96229
lowerneck -9.5797 -4.25625 -5.64252
upperneck 21.7356 -5.41209 2.45426
head 8.56649 -2.75982 1.21332
rclavicle 1.65985e-014 -2.94201e-014
rhumerus -28.1831 1.40919 -80.1254
rradius 25.908
rwrist 6.43959
rhand -20.4042 -699.44
rfingers 7.12502
rthumb 5.94963 -9.33609
lclavicle 1.65985e-014 -2.94201e-014
lhumerus -209.357 191.951 272.517
lradius 24.5727
lwrist -340.981
lhand -18.0393 51.796
lfingers 7.12502
lthumb 8.2324 81.6156
rfemur -15.6323 6.54421 26.9835
rtibia 41.7512
rfoot -33.7327 -11.0873
rtoes -1.31557
lfemur -44.0825 8.3293 -21.6578
ltibia 83.434
lfoot -21.1898 2.86909
ltoes -22.2644
